:SAMPLES-PER-SECOND 30
:FULLY-SPECIFIED
:DEGREES
533
root  -3.05736 40.7291 1.92869 173.879 -47.1407 -174.604
RightUpLeg  -1.05295 3.75067 1.93341
RightLeg  0.19759 16.3326 -1.59286
RightFoot  2.63975 -0.854607 7.10778
RightToes  -3.13006e-008 1.75238e-005 3.56266e-009
Spine  -2.52325 -13.3328 -15.1747
Spine1  13.924 -15.6875 6.81543
HEad  -10.6511 20.0851 -18.9924
LeftShoulder1  5.5537 -11.8199 -30.2276
LeftArm  16.4796 -40.061 -81.3249
LeftForeArm  20.5132 -61.0602 -18.7704
LeftHand  -0.165942 -3.19568 2.49437
RightShoulder  1.56051 2.37318 20.219
RightArm  -58.667 -1.49349 4.42272
RightForeArm  98.6695 79.989 95.7919
RightHand  0.0250922 4.70381 -0.00952669
LeftUpLeg  7.92303 4.15586 1.93882
LeftLeg  2.02117 52.1092 1.2417
LeftFoot  -4.40382 0.251541 -3.83181
LeftToes  4.76866e-008 1.46233e-008 1.30548e-009
534
root  -3.05541 40.7295 1.90931 173.817 -46.6431 -174.618
RightUpLeg  -1.05894 3.79609 2.02021
RightLeg  0.328867 16.7647 -1.5571
RightFoot  2.60233 -0.858427 7.1562
RightToes  -3.13006e-008 1.75238e-005 3.56266e-009
Spine  -2.24582 -13.48 -15.9211
Spine1  13.2527 -16.0905 7.95194
HEad  -8.83768 18.5456 -18.5362
LeftShoulder1  5.4817 -11.6301 -30.2067
LeftArm  14.3662 -39.68 -80.7873
LeftForeArm  17.5681 -60.4266 -18.551
LeftHand  -0.176253 -2.53832 2.78631
RightShoulder  1.70933 2.79264 20.8584
RightArm  -58.0867 -0.306366 6.63338
RightForeArm  96.4049 79.8519 96.2349
RightHand  -0.0218254 5.12042 -0.556721
LeftUpLeg  7.96653 4.20345 1.95612
LeftLeg  2.41239 52.5426 1.58006
LeftFoot  -4.46274 0.262521 -3.99358
LeftToes  4.76866e-008 1.46233e-008 1.30548e-009
535
root  -3.0506 40.7209 1.89664 173.704 -45.8372 -174.674
RightUpLeg  -1.06019 3.90061 2.14113
RightLeg  0.554603 17.457 -1.53747
RightFoot  2.57987 -0.870656 7.26637
RightToes  -3.13006e-008 1.75238e-005 3.56266e-009
Spine  -2.86426 -13.5066 -15.7958
Spine1  13.6776 -15.9514 7.48836
HEad  -6.93421 15.6215 -17.7008
LeftShoulder1  5.43513 -11.6041 -29.9559
LeftArm  13.156 -39.2775 -80.5527
LeftForeArm  12.2691 -58.9665 -17.9098
LeftHand  -0.16597 -2.27414 2.71385
RightShoulder  1.76564 2.82893 21.6334
RightArm  -56.7093 1.93866 9.49281
RightForeArm  91.37 79.6049 96.429
RightHand  -0.279041 4.80151 -3.4577
LeftUpLeg  8.14801 4.31871 1.96951
LeftLeg  2.75772 53.1999 1.84322
LeftFoot  -4.5208 0.263249 -3.99779
LeftToes  4.76866e-008 1.46233e-008 1.30548e-009
536
root  -3.03945 40.7114 1.89055 173.544 -45.0271 -174.629
RightUpLeg  -1.0905 3.99142 2.28536
RightLeg  0.736467 18.1947 -1.44892
RightFoot  2.57069 -0.898837 7.5008
RightToes  -3.13006e-008 1.75238e-005 3.56266e-009
Spine  -3.86522 -13.5375 -15.2286
Spine1  14.5807 -15.6194 6.26557
HEad  -5.31932 12.3858 -16.3321
LeftShoulder1  5.36744 -11.5892 -29.5351
LeftArm  13.1922 -38.9568 -81.0728
LeftForeArm  0.696962 -56.8382 -17.4097
LeftHand  -0.146457 -1.10796 2.73328
RightShoulder  1.8947 3.08795 22.5687
RightArm  -54.4768 4.58404 12.2754
RightForeArm  77.2275 78.9803 96.4119
RightHand  -0.554395 5.28292 -6.30532
LeftUpLeg  8.26328 4.4875 2.07291
LeftLeg  3.14833 53.7858 2.12809
LeftFoot  -4.61248 0.249181 -3.77223
LeftToes  4.76866e-008 1.46233e-008 1.30548e-009
537
root  -2.99758 40.693 1.90237 173.331 -44.195 -174.583
RightUpLeg  -1.23612 4.30735 2.53267
RightLeg  1.17154 18.7325 -1.43318
RightFoot  2.52595 -0.943295 7.88696
RightToes  -3.13006e-008 1.75238e-005 3.56266e-009
Spine  -4.31515 -13.4045 -15.1488
Spine1  14.9362 -15.3676 5.94038
HEad  -3.5532 9.21466 -15.1326
LeftShoulder1  5.47948 -11.7156 -29.9851
LeftArm  13.6403 -38.3994 -82.2067
LeftForeArm  -13.2155 -53.9898 -16.6032
LeftHand  -0.139245 -0.11945 3.00969
RightShoulder  2.0674 3.69863 22.4853
RightArm  -51.1418 7.06046 15.2145
RightForeArm  59.5136 78.1849 98.0328
RightHand  -0.893164 5.27877 -10.0303
LeftUpLeg  8.14455 4.64222 2.15594
LeftLeg  4.38999 54.4301 3.18797
LeftFoot  -4.76497 0.251056 -3.7989
LeftToes  4.76866e-008 1.46233e-008 1.30548e-009
538
root  -2.92105 40.6695 1.94636 173.344 -43.1375 -174.725
RightUpLeg  -1.81661 4.86277 2.7309
RightLeg  2.14488 19.2905 -1.32924
RightFoot  2.39974 -0.960392 8.09413
RightToes  -3.13006e-008 1.75238e-005 3.56266e-009
Spine  -4.78894 -13.1169 -14.9218
Spine1  15.5518 -14.8228 5.05678
HEad  -2.1431 6.48043 -13.7741
LeftShoulder1  5.50003 -11.9179 -29.6362
LeftArm  15.2634 -38.6018 -84.6194
LeftForeArm  -28.6509 -49.8374 -15.1334
LeftHand  -0.130274 1.31819 3.4106
RightShoulder  2.41665 4.56576 23.826
RightArm  -48.2517 10.9992 16.2656
RightForeArm  43.891 77.8874 94.7232
RightHand  -1.08008 4.37075 -13.0737
LeftUpLeg  8.03684 4.77531 2.10737
LeftLeg  5.13629 55.3664 3.79198
LeftFoot  -4.80144 0.249064 -3.76003
LeftToes  4.76866e-008 1.46233e-008 1.30548e-009
539
root  -2.82 40.6464 2.0246 173.39 -42.0584 -174.886
RightUpLeg  -2.70075 6.10166 3.00283
RightLeg  3.5346 19.1917 -1.29219
RightFoot  2.38195 -1.01196 8.52966
RightToes  -3.13006e-008 1.75238e-005 3.56266e-009
Spine  -4.5092 -12.835 -15.0956
Spine1  15.4935 -14.5019 4.86515
HEad  -1.01063 4.6759 -13.0729
LeftShoulder1  5.77664 -12.5017 -30.0701
LeftArm  17.5646 -39.8107 -86.7316
LeftForeArm  -41.2968 -44.0019 -12.9601
LeftHand  -0.048535 3.43167 2.02209
RightShoulder  2.71843 5.36313 24.5543
RightArm  -45.4829 16.4284 17.0638
RightForeArm  20.8376 77.4999 79.1154
RightHand  -1.17773 3.79016 -15.0622
LeftUpLeg  7.82736 4.89772 2.02485
LeftLeg  5.92833 56.3856 4.44116
LeftFoot  -4.79593 0.235112 -3.5361
LeftToes  4.76866e-008 1.46233e-008 1.30548e-009
540
root  -2.69428 40.6142 2.15666 173.825 -40.9211 -175.068
RightUpLeg  -4.19445 8.40549 3.20295
RightLeg  5.11227 18.2928 -1.33482
RightFoot  2.58137 -1.10951 9.21272
RightToes  -3.13006e-008 1.75238e-005 3.56266e-009
Spine  -2.748 -12.7006 -14.7557
Spine1  13.2575 -14.3085 4.44932
HEad  -0.392794 4.37037 -13.2095
LeftShoulder1  6.00577 -12.9661 -30.4444
LeftArm  19.9681 -41.5766 -89.753
LeftForeArm  -46.0952 -36.2535 -10.2501
LeftHand  -0.0311365 5.05418 2.7112
RightShoulder  2.9915 6.10936 25.0497
RightArm  -43.1919 23.1237 17.5552
RightForeArm  -7.2493 74.9907 54.9615
RightHand  -1.24037 3.47576 -16.3692
LeftUpLeg  7.0366 5.04278 1.90604
LeftLeg  7.08552 57.4727 5.2961
LeftFoot  -4.82898 0.218442 -3.27044
LeftToes  4.76866e-008 1.46233e-008 1.30548e-009
541
root  -2.5727 40.6029 2.35272 174.544 -39.7523 -175.473
RightUpLeg  -5.70029 10.2777 2.96231
RightLeg  6.18239 17.6908 -1.24144
RightFoot  3.09754 -1.21287 9.72061
RightToes  -3.13006e-008 1.75238e-005 3.56266e-009
Spine  -1.34438 -12.6006 -14.1504
Spine1  11.8953 -14.1071 3.80706
HEad  -0.936086 4.93019 -14.0436
LeftShoulder1  6.22988 -13.6717 -30.2446
LeftArm  23.0626 -44.762 -93.0505
LeftForeArm  -48.5142 -28.1415 -8.1192
LeftHand  0.00323281 6.63579 3.39957
RightShoulder  3.02338 6.50825 24.0697
RightArm  -42.6028 30.5525 19.145
RightForeArm  -28.1389 69.7722 36.8591
RightHand  -1.08335 2.77779 -15.5476
LeftUpLeg  6.31656 4.98628 1.50379
LeftLeg  7.24663 58.749 5.30827
LeftFoot  -4.75828 0.20947 -3.12454
LeftToes  4.76866e-008 1.46233e-008 1.30548e-009
542
root  -2.45742 40.6148 2.60622 175.592 -38.9038 -175.94
RightUpLeg  -7.20856 10.3742 2.34204
RightLeg  6.3801 18.3648 -1.09187
RightFoot  3.87374 -1.36745 10.4064
RightToes  -3.13006e-008 1.75238e-005 3.56266e-009
Spine  -0.019086 -12.9541 -13.252
Spine1  11.4172 -14.2419 2.48307
HEad  -3.14685 6.19138 -15.0078
LeftShoulder1  6.07958 -13.9647 -28.7466
LeftArm  21.2369 -48.0473 -97.0687
LeftForeArm  -41.63 -20.3871 -7.51787
LeftHand  0.0017464 6.34295 3.84049
RightShoulder  3.02231 6.86462 22.9599
RightArm  -43.5471 37.9901 20.2397
RightForeArm  -41.8902 63.6149 26.7844
RightHand  -1.16347 2.59572 -17.0276
LeftUpLeg  5.40613 4.80661 1.01005
LeftLeg  6.50877 59.7771 4.42133
LeftFoot  -4.6496 0.215166 -3.20621
LeftToes  4.76866e-008 1.46233e-008 1.30548e-009
